<svg xmlns="http://www.w3.org/2000/svg" viewBox="0 0 45 45">
  <defs>
    <linearGradient id="gown" x1="0" y1="0" x2="0" y2="1">
      <stop offset="0%" stop-color="#fff8ff"/>
      <stop offset="100%" stop-color="#ffd6f0"/>
    </linearGradient>
    <linearGradient id="gold" x1="0" y1="0" x2="1" y2="1">
      <stop offset="0%" stop-color="#ffe9a8"/>
      <stop offset="100%" stop-color="#e8b84a"/>
    </linearGradient>
  </defs>
  <ellipse cx="22.5" cy="41" rx="12" ry="2.4" fill="#f0b8dc" opacity=".35"/>
  <path d="M8 10l.8 2 2 .8-2 .8-.8 2-.8-2-2-.8 2-.8z" fill="#ffe9a8" opacity=".85"/>
  <path d="M36 14l.6 1.5 1.5.6-1.5.6-.6 1.5-.6-1.5-1.5-.6 1.5-.6z" fill="#ffe9a8" opacity=".7"/>
  <circle cx="22.5" cy="12.5" r="4.2" fill="url(#gold)" stroke="#a8558a" stroke-width="1"/>
  <path d="M20.5 8.8h4l.6 2.2h-5.2z" fill="url(#gold)" stroke="#a8558a" stroke-width=".8"/>
  <circle cx="22.5" cy="18" r="5.5" fill="#ffe8f2" stroke="#a8558a" stroke-width="1.1"/>
  <circle cx="20.2" cy="17.5" r="1" fill="#a8558a" opacity=".55"/>
  <circle cx="24.8" cy="17.5" r="1" fill="#a8558a" opacity=".55"/>
  <path d="M16.5 23.5c0 5.5 2.7 9.5 6 9.5s6-4 6-9.5" fill="url(#gown)" stroke="#a8558a" stroke-width="1.1"/>
  <path d="M11.5 35.5h22c1.4 0 2.5 1.1 2.7 2.5l.4 2.5H8.4l.4-2.5c.2-1.4 1.3-2.5 2.7-2.5z" fill="url(#gold)" stroke="#a8558a" stroke-width="1"/>
</svg>