<!-- High-fi mockup reference: Campus mobile 390px  NOT production UI -->
<svg xmlns="http://www.w3.org/2000/svg" viewBox="0 0 390 844" fill="none">
  <rect width="390" height="844" fill="#fbfaff"/>
  <!-- Top bar -->
  <rect x="0" y="0" width="390" height="56" fill="#fff"/>
  <rect x="20" y="18" width="80" height="20" rx="4" fill="#5b5bd6" opacity="0.2"/>
  <rect x="280" y="16" width="90" height="24" rx="12" fill="#eef0ff"/>
  <rect x="290" y="22" width="50" height="12" rx="2" fill="#5b5bd6" opacity="0.4"/>
  <!-- Resume card -->
  <rect x="20" y="72" width="350" height="88" rx="16" fill="#fff" stroke="#e7e6f2"/>
  <rect x="36" y="92" width="140" height="14" rx="3" fill="#1c1b2e" opacity="0.8"/>
  <rect x="36" y="114" width="200" height="10" rx="2" fill="#6b6982" opacity="0.5"/>
  <rect x="36" y="132" width="100" height="28" rx="14" fill="#5b5bd6"/>
  <!-- Semester section -->
  <rect x="20" y="180" width="120" height="12" rx="2" fill="#1c1b2e" opacity="0.7"/>
  <rect x="20" y="204" width="350" height="120" rx="16" fill="#fff" stroke="#e7e6f2"/>
  <rect x="36" y="224" width="160" height="14" rx="3" fill="#5b5bd6" opacity="0.3"/>
  <rect x="36" y="248" width="280" height="10" rx="2" fill="#a9a7bd" opacity="0.4"/>
  <rect x="36" y="268" width="80" height="24" rx="12" fill="#f1f0f9"/>
  <rect x="20" y="340" width="350" height="120" rx="16" fill="#fff" stroke="#e7e6f2"/>
  <!-- Bottom nav -->
  <rect x="0" y="780" width="390" height="64" fill="#fff" stroke="#e7e6f2"/>
  <rect x="40" y="796" width="40" height="32" rx="8" fill="#eef0ff"/>
  <rect x="120" y="800" width="32" height="24" rx="4" fill="#f1f0f9"/>
  <rect x="200" y="800" width="32" height="24" rx="4" fill="#f1f0f9"/>
  <rect x="280" y="800" width="32" height="24" rx="4" fill="#f1f0f9"/>
  <text x="195" y="30" text-anchor="middle" font-family="system-ui,sans-serif" font-size="10" fill="#6b6982">Campus - 390px mockup</text>
</svg>
