<!-- High-fi mockup reference: Campus desktop 1280px -->
<svg xmlns="http://www.w3.org/2000/svg" viewBox="0 0 1280 800" fill="none">
  <rect width="1280" height="800" fill="#fbfaff"/>
  <!-- Sidebar -->
  <rect x="0" y="0" width="220" height="800" fill="#fff" stroke="#e7e6f2"/>
  <rect x="24" y="32" width="100" height="24" rx="4" fill="#5b5bd6" opacity="0.25"/>
  <rect x="24" y="80" width="172" height="36" rx="10" fill="#eef0ff"/>
  <rect x="24" y="128" width="172" height="32" rx="8" fill="#f1f0f9"/>
  <rect x="24" y="168" width="172" height="32" rx="8" fill="#f1f0f9"/>
  <rect x="24" y="208" width="172" height="32" rx="8" fill="#f1f0f9"/>
  <!-- Main -->
  <rect x="252" y="32" width="400" height="100" rx="16" fill="#fff" stroke="#e7e6f2"/>
  <rect x="276" y="56" width="200" height="16" rx="4" fill="#1c1b2e" opacity="0.7"/>
  <rect x="276" y="80" width="120" height="32" rx="16" fill="#5b5bd6"/>
  <!-- 3-col grid -->
  <rect x="252" y="152" width="320" height="200" rx="16" fill="#fff" stroke="#e7e6f2"/>
  <rect x="588" y="152" width="320" height="200" rx="16" fill="#fff" stroke="#e7e6f2"/>
  <rect x="924" y="152" width="320" height="200" rx="16" fill="#fff" stroke="#e7e6f2"/>
  <rect x="276" y="176" width="180" height="14" rx="3" fill="#5b5bd6" opacity="0.3"/>
  <text x="640" y="24" text-anchor="middle" font-family="system-ui,sans-serif" font-size="11" fill="#6b6982">Campus · 1280px desktop mockup</text>
</svg>
