<!-- High-fi mockup: Study plan - 1280px -->
<svg xmlns="http://www.w3.org/2000/svg" viewBox="0 0 1280 800" fill="none">
  <rect width="1280" height="800" fill="#fbfaff"/>
  <rect x="0" y="0" width="220" height="800" fill="#fff" stroke="#e7e6f2"/>
  <rect x="252" y="32" width="180" height="20" rx="4" fill="#1c1b2e" opacity="0.85"/>
  <!-- Week overview -->
  <rect x="252" y="72" width="984" height="120" rx="16" fill="#fff" stroke="#e7e6f2"/>
  <rect x="276" y="96" width="160" height="12" rx="2" fill="#6b6982"/>
  <rect x="276" y="124" width="936" height="16" rx="8" fill="#f1f0f9"/>
  <rect x="276" y="124" width="580" height="16" rx="8" fill="#5b5bd6"/>
  <rect x="276" y="156" width="280" height="10" rx="2" fill="#a9a7bd" opacity="0.4"/>
  <!-- Timeline -->
  <rect x="252" y="212" width="640" height="556" rx="16" fill="#fff" stroke="#e7e6f2"/>
  <rect x="276" y="236" width="120" height="12" rx="2" fill="#6b6982"/>
  <rect x="276" y="268" width="592" height="72" rx="14" fill="#eef0ff" stroke="#5b5bd6"/>
  <rect x="296" y="288" width="160" height="12" rx="2" fill="#1c1b2e" opacity="0.7"/>
  <rect x="296" y="308" width="240" height="8" rx="2" fill="#a9a7bd" opacity="0.4"/>
  <rect x="276" y="356" width="592" height="72" rx="14" fill="#fff" stroke="#e7e6f2"/>
  <rect x="276" y="444" width="592" height="72" rx="14" fill="#fff" stroke="#e7e6f2"/>
  <rect x="276" y="532" width="592" height="72" rx="14" fill="#fff" stroke="#e7e6f2"/>
  <rect x="276" y="620" width="592" height="72" rx="14" fill="#fff" stroke="#e7e6f2"/>
  <!-- Sidebar -->
  <rect x="916" y="212" width="320" height="556" rx="16" fill="#fff" stroke="#e7e6f2"/>
  <rect x="940" y="236" width="120" height="12" rx="2" fill="#6b6982"/>
  <rect x="940" y="268" width="272" height="80" rx="12" fill="#fbfaff"/>
  <rect x="940" y="364" width="272" height="80" rx="12" fill="#fbfaff"/>
  <rect x="940" y="460" width="272" height="48" rx="24" fill="#5b5bd6"/>
  <text x="640" y="24" text-anchor="middle" font-family="system-ui,sans-serif" font-size="11" fill="#6b6982">Study plan - 1280px</text>
</svg>
