<svg xmlns="http://www.w3.org/2000/svg" viewBox="0 0 45 45">
  <defs>
    <linearGradient id="jacket" x1="0" y1="0" x2="0" y2="1">
      <stop offset="0%" stop-color="#1e4a7a"/>
      <stop offset="100%" stop-color="#0f2847"/>
    </linearGradient>
    <linearGradient id="hair" x1="0" y1="0" x2="0" y2="1">
      <stop offset="0%" stop-color="#4a5568"/>
      <stop offset="100%" stop-color="#1f2937"/>
    </linearGradient>
  </defs>
  <ellipse cx="22.5" cy="41" rx="11.5" ry="2.3" fill="#0a0812" opacity=".5"/>
  <path d="M4 18h5M3 22h6M5 26h4" stroke="#f97316" stroke-width="1.2" stroke-linecap="round" opacity=".55"/>
  <path d="M41 20h-5M42 24h-6" stroke="#f97316" stroke-width="1.2" stroke-linecap="round" opacity=".45"/>
  <circle cx="22.5" cy="14.5" r="7" fill="#8b6a58" stroke="#f8fafc" stroke-width="2"/>
  <ellipse cx="19.75" cy="14.5" rx="2.1" ry="2.5" fill="#f8fafc"/>
  <ellipse cx="25.25" cy="14.5" rx="2.1" ry="2.5" fill="#f8fafc"/>
  <circle cx="20.35" cy="13.7" r=".75" fill="#e2e8f0"/>
  <circle cx="25.85" cy="13.7" r=".75" fill="#e2e8f0"/>
  <rect x="15" y="9.8" width="15" height="3" rx="1" fill="#0f172a" stroke="#f8fafc" stroke-width="1.2"/>
  <rect x="18.5" y="10.1" width="8" height="2.2" rx=".4" fill="#64748b" stroke="#f8fafc" stroke-width=".7"/>
  <path d="M15.5 21.5c0 6 3.1 10.5 7 10.5s7-4.5 7-10.5" fill="url(#jacket)" stroke="#f8fafc" stroke-width="2" stroke-linejoin="round"/>
  <path d="M11 35.5h23c1.3 0 2.4 1 2.6 2.3l.35 2.2H8.05l.35-2.2c.2-1.3 1.3-2.3 2.6-2.3z" fill="#0f2847" stroke="#f8fafc" stroke-width="1.4"/>
</svg>